# xmcd CD database file
#
# Track frame offsets:
#	175
#	18625
#	34375
#	58300
#	79000
#	87550
#	104650
#	125875
#	137425
#	155125
#	171325
#	180175
#	204700
#	227125
#	247525
#
# Disc length: 3360 seconds
#
# Revision: 0
# Processed by: cddbd v1.4PL0 Copyright (c) Steve Scherf et al.
# Submitted via: CDex 1.50Beta7
#
DISCID=d30d1e0f
DTITLE=The Titi Winterstein Quartet - Maro Djipen - Unser Leben - Our life
DYEAR=1900
DGENRE=Jazz
TTITLE0=What is this thing called love?
TTITLE1=Valse a Jesaja
TTITLE2=Fur dich and Verbunkos
TTITLE3=Swing '94
TTITLE4=Ungertikki Sintengi Gili
TTITLE5=Fate
TTITLE6=Quand on aime
TTITLE7=Maro Djipen
TTITLE8=Valse tragique
TTITLE9=Classic swing
TTITLE10=Valse a trois
TTITLE11=Halagbo and Paloatacs
TTITLE12=Nino's Bossa
TTITLE13=Dein ist mein ganzes hertz
TTITLE14=Hej Delare
EXTD=
EXTT0=
EXTT1=
EXTT2=
EXTT3=
EXTT4=
EXTT5=
EXTT6=
EXTT7=
EXTT8=
EXTT9=
EXTT10=
EXTT11=
EXTT12=
EXTT13=
EXTT14=
PLAYORDER=
